<svg xmlns="http://www.w3.org/2000/svg" xmlns:xlink="http://www.w3.org/1999/xlink" version="1.1" style="enable-background:new 0 0 474.565 474.565;" xml:space="preserve" width="406.6557386275806" height="437.1912578814115"><rect id="backgroundrect" width="100%" height="100%" x="0" y="0" fill="none" stroke="none" class="" style=""/>
















<g class="currentLayer" style=""><title>Layer 1</title><g id="svg_1" class="selected" fill="#16a085" fill-opacity="1">
	<path d="M216.78997162817018,104.61365516859166 c-0.5136969698614189,-9.339557476074999 -10.32140974427828,-7.750652988934248 -19.890923098676897,-7.750652988934248 C203.96789181608466,98.6952746957216 210.65527695673936,101.24445167664831 216.78997162817018,104.61365516859166 z" id="svg_2" fill="#16a085" fill-opacity="1"/>
	<path d="M114.49137373563542,81.20742562074254 c-37.149784990390586,0 -54.2492821455796,45.762264177665955 -24.55149395725459,68.77827990286836 c10.123899193159946,-26.30849641480715 30.277604570148792,-45.19880531748053 56.698243442493194,-52.654941742598965 C139.41076288252674,87.60676731687482 127.73390519302006,81.20742562074254 114.49137373563542,81.20742562074254 z" id="svg_3" fill="#16a085" fill-opacity="1"/>
	<path d="M37.744537827478176,142.82408566230828 c1.5139649969843143,4.727939572068353 3.475507551867687,9.263659650105659 5.805792981156533,13.56096155743493 L31.34706087773538,168.26800684216033 c-3.2771493159806044,3.189358643450751 -3.2771493159806044,8.366085360381287 0,11.562043814785897 l21.510001006985988,20.940375180214794 c1.5665214526467048,1.5245563303406584 3.7128592871171877,2.3825317543418953 5.94989939184373,2.3825317543418953 c2.2124572464328445,0 4.3443844398346085,-0.8579754240012366 5.9380318050812555,-2.3825317543418953 l12.189706974599352,-11.882959622417127 c1.8293037309586504,0.9421230136628973 3.8569656978043847,1.5196064721252673 5.751541155956647,2.3322081958187457 c0,-0.13529612455404136 -0.013562956299971483,-0.27554210732347467 -0.013562956299971483,-0.41083823187751567 c0,-9.710796842229382 1.1460698073475886,-18.871334446181045 3.1864470457245453,-27.47336304816267 c-14.717502955006529,-9.2182859497979 -24.537931000954615,-25.219527607420964 -24.537931000954615,-43.488629304062684 c0,-28.537582564471897 23.853001707806058,-51.75819242924383 53.169331750194374,-51.75819242924383 c19.85108191454573,0 36.990420253865906,10.755216925677042 46.13948196296541,26.468541830438156 c9.767871590285697,-1.1788912316324685 18.94321152721639,-1.1788912316324685 29.987696379236898,0.8522005894166125 c-1.4207196724220112,-4.1826301920060285 -3.092354036393493,-8.276162936135005 -5.186135415201588,-12.113128029432843 l12.203269930899323,-11.88873445700175 c1.5919519957091506,-1.531156141294515 2.4735441552072954,-3.613396497235977 2.4735441552072954,-5.778134490100635 c0,-2.1655629692338905 -0.8815921594981455,-4.24697834880612 -2.4735441552072954,-5.778134490100635 l-21.498133420223514,-20.927175558307088 c-1.6445084513715398,-1.601279132679231 -3.790846285842024,-2.395731376249607 -5.936336435543759,-2.395731376249607 c-2.1463378344704838,0 -4.291827984172219,0.7944522435703766 -5.9244688487812835,2.395731376249607 l-12.24226343026174,11.88873445700175 c-4.422371438559444,-2.280234684557133 -9.069379340837166,-4.189230002959883 -13.939328337295668,-5.630463720008115 V28.385838651558714 c0,-4.509320834221884 -3.7391375149483816,-8.167266055396388 -8.386145417226105,-8.167266055396388 h-30.421710980835982 c-4.620729674446526,0 -8.399708373526076,3.657945221174505 -8.399708373526076,8.167266055396388 v16.795693901193438 c-4.85723372492728,1.441233717048231 -9.505089311973748,3.3502290354509823 -13.941023706833167,5.630463720008115 L64.74499308164636,38.936461437666225 c-1.6462038209090362,-1.601279132679231 -3.7916939706107717,-2.395731376249607 -5.9380318050812555,-2.395731376249607 c-2.1454901497017356,0 -4.3036955709346945,0.7944522435703766 -5.936336435543759,2.389131565295751 L31.34706087773538,59.857037185019465 c-1.5665214526467048,1.5377559522483715 -2.4481136121448492,3.6125715208667453 -2.4481136121448492,5.784734301054491 c0,2.1713378038185143 0.8815921594981455,4.24697834880612 2.4481136121448492,5.778134490100635 l12.203269930899323,11.882134646047897 c-2.331133114057595,4.304726694652358 -4.291827984172219,8.833846961735809 -5.77866706855659,13.56096155743493 H20.526364804664404 c-4.647007902277722,0 -8.399708373526076,3.6637200557591267 -8.399708373526076,8.179640700934867 v29.60757691536575 c0,4.5027210232680295 3.752700471248353,8.173865866350242 8.399708373526076,8.173865866350242 H37.744537827478176 z" id="svg_4" fill="#16a085" fill-opacity="1"/>
	<path d="M301.2761694749986,301.2500726805058 c13.454452649571689,-7.181419294164197 22.695064313695994,-20.927175558307088 22.695064313695994,-36.87891863377623 c0,-23.278358210618165 -19.468776083840282,-42.21239086086084 -43.3878972036087,-42.21239086086084 c-8.41157596028855,0 -16.2060374089284,2.4468799111419886 -22.866296636983137,6.495038954963208 c-3.988356836960358,15.450157442976113 -10.268005603847143,30.228784121397418 -18.48207101301736,43.065416426646685 C262.5208695325989,275.9793965381925 283.88676412889777,286.29902594091504 301.2761694749986,301.2500726805058 z" id="svg_5" fill="#16a085" fill-opacity="1"/>
	<path d="M391.055311017891,248.39713660929124 c0,-4.874785365791641 -4.06803920522269,-8.82147231619733 -9.05751175407469,-8.82147231619733 H363.3851847964117 c-1.6072103215466185,-5.10577874917659 -3.7391375149483816,-9.999538571460567 -6.266933495355563,-14.643330553867258 l13.176412045422275,-12.82343268334156 c1.712323232871397,-1.6532526439408441 2.6591871195631542,-3.894713439144075 2.6591871195631542,-6.232696469547445 c0,-2.3388080067726014 -0.9477115714605063,-4.581093778345064 -2.6591871195631542,-6.239296280501301 l-23.19519832725744,-22.58042820224793 c-1.7631843189962901,-1.7242006116947937 -4.093469748285137,-2.588775846649887 -6.409344536505263,-2.588775846649887 c-2.3175701577576233,0 -4.634292630746498,0.8645752349550931 -6.3974769497427895,2.588775846649887 l-13.203537958022217,12.830032494295414 c-4.766531454671221,-2.4600795330497 -9.781434546585668,-4.521695479760363 -15.04725233004959,-6.0792508648703 v-18.11483111559534 c0,-4.868185554837786 -4.041760977391495,-8.814872505243473 -9.04394879777472,-8.814872505243473 H264.18063630980794 c-2.1988942901328734,0 -4.13415861718505,0.8579754240012366 -5.7125476565942295,2.126789079879989 c2.7634523461191853,9.813093912014143 4.277417343103499,20.453639122367942 4.277417343103499,31.804488986630457 c0,7.206168585241155 -0.5781210122862851,14.522884003959394 -1.6580714076715126,21.798350604216033 c6.107568758830899,-2.191137236680081 12.610158619898465,-3.567197820558987 19.495901996440228,-3.567197820558987 c31.35585959599652,0 56.867780396242836,24.82271397382039 56.867780396242836,55.331165084387436 c0,19.4999664395358 -10.464668470196731,36.59017690454505 -26.169724180794933,46.44864451686694 c11.426790682725956,12.19645064272527 20.509732979863095,26.666536159053816 26.420638872344405,42.87897176720026 c0.9731421145229519,0.3266906422158561 1.9869730979458196,0.5642838365546605 3.000804081368686,0.5642838365546605 c2.316722472988875,0 4.634292630746498,-0.8579754240012366 6.41103990604276,-2.5821760356960293 l23.208761283557415,-22.58042820224793 c1.698760276571427,-1.6532526439408441 2.63290889173196,-3.894713439144075 2.63290889173196,-6.232696469547445 s-0.9341486151605352,-4.5794438256066 -2.63290889173196,-6.239296280501301 l-13.203537958022217,-12.830032494295414 c2.5277959804071815,-4.6371921714528375 4.6597231738089455,-9.532601946475278 6.266933495355563,-14.643330553867258 h18.612614467404587 c2.395557156482459,0 4.725842585771306,-0.9223235808013284 6.41103990604276,-2.588775846649887 c1.698760276571427,-1.6466528329869887 2.6600348043319033,-3.8938884627748442 2.6600348043319033,-6.232696469547445 L391.055311017891,248.39713660929124 z" id="svg_6" fill="#16a085" fill-opacity="1"/>
	<path d="M319.2191129750921,361.68124167948525 c-14.073262530757887,-40.2984456842427 -51.260345650973385,-68.0151767613288 -94.18879770992055,-71.78779369782654 c-14.37503830843225,14.814925638667507 -32.1730277130698,24.21388141332721 -52.32842845959615,24.21388141332721 c-20.14014242068887,0 -37.951694781626394,-9.398130798290468 -52.313170133758675,-24.21388141332721 c-42.953882602009614,3.7726169364977453 -80.14266109176262,31.489348013583847 -94.2159236225205,71.79439350878039 l-7.779203122802381,22.28508666206289 c-2.225172517964068,6.412541318040011 -1.15963276364756,13.478463920511736 2.8956911700439067,18.980231326919665 c4.054476248922719,5.503417359146393 10.58419202259023,8.770323781304949 17.534359441556855,8.770323781304949 h267.7437772634304 c6.963730375266597,0 13.493446148934106,-3.2669064221585544 17.548770082625577,-8.770323781304949 c4.040913292622747,-5.5017674064079305 5.120863688007975,-12.567690008879653 2.8821282137439352,-18.980231326919665 L319.2191129750921,361.68124167948525 z" id="svg_7" fill="#16a085" fill-opacity="1"/>
	<path d="M102.89335072962234,190.80883617868514 c0,49.98449323539512 31.265157325740464,103.61950690464165 69.80853607595311,103.61950690464165 c38.55863707605012,0 69.82209903225308,-53.63501366924653 69.82209903225308,-103.61950690464165 C242.5248335225973,87.19675406136656 102.89335072962234,86.99133494542781 102.89335072962234,190.80883617868514 z" id="svg_8" fill="#16a085" fill-opacity="1"/>
</g><g id="svg_9" class="" fill="#338bf8" fill-opacity="1">
</g><g id="svg_10" class="" fill="#338bf8" fill-opacity="1">
</g><g id="svg_11" class="" fill="#338bf8" fill-opacity="1">
</g><g id="svg_12" class="" fill="#338bf8" fill-opacity="1">
</g><g id="svg_13" class="" fill="#338bf8" fill-opacity="1">
</g><g id="svg_14" class="" fill="#338bf8" fill-opacity="1">
</g><g id="svg_15" class="" fill="#338bf8" fill-opacity="1">
</g><g id="svg_16" class="" fill="#338bf8" fill-opacity="1">
</g><g id="svg_17" class="" fill="#338bf8" fill-opacity="1">
</g><g id="svg_18" class="" fill="#338bf8" fill-opacity="1">
</g><g id="svg_19" class="" fill="#338bf8" fill-opacity="1">
</g><g id="svg_20" class="" fill="#338bf8" fill-opacity="1">
</g><g id="svg_21" class="" fill="#338bf8" fill-opacity="1">
</g><g id="svg_22" class="" fill="#338bf8" fill-opacity="1">
</g><g id="svg_23" class="" fill="#338bf8" fill-opacity="1">
</g></g></svg>