<svg xmlns="http://www.w3.org/2000/svg" xmlns:xlink="http://www.w3.org/1999/xlink" version="1.1" width="335.0799865722656" height="335.0790100097656" style="enable-background:new 0 0 335.08 335.079;" xml:space="preserve"><rect id="backgroundrect" width="100%" height="100%" x="0" y="0" fill="none" stroke="none"/>
















<g class="currentLayer" style=""><title>Layer 1</title><g id="svg_1" class="" fill="#16a085" fill-opacity="1">
	<g id="svg_2" fill="#16a085" fill-opacity="1">
		<path d="M310.63152174949647,115.775 c-1.355,-10.186 -1.546,-27.73 7.915,-33.621 c0.16900000000000004,-0.10800000000000001 0.29500000000000004,-0.264 0.44300000000000006,-0.3980000000000001 c7.735,-2.474 13.088,-5.946 8.886,-10.618 l-114.102,-34.38 L29.01652174949646,62.445 c0,0 -21.157,3.024 -19.267,35.894 c1.026,17.89 6.6370000000000005,26.676000000000002 11.544,31 l-15.161,4.569 c-4.208,4.672000000000001 1.1440000000000001,8.145 8.88,10.615 c0.14700000000000002,0.138 0.271,0.29300000000000004 0.44300000000000006,0.401 c9.455,5.896 9.273,23.438 7.913,33.626 c-33.967,9.645 -21.774,12.788 -21.774,12.788 l7.451,1.803 c-5.241,4.736 -10.446,13.717 -9.471,30.75 c1.891,32.864 19.269,35.132 19.269,35.132 l120.904,39.298 l182.49,-44.202 c0,0 12.197,-3.148 -21.779,-12.794 c-1.366,-10.172 -1.556,-27.712 7.921,-33.623 c0.17400000000000002,-0.10500000000000001 0.30100000000000005,-0.264 0.44200000000000006,-0.3960000000000001 c7.736,-2.474 13.084,-5.943 8.881,-10.615 l-7.932,-2.395 c5.29,-3.19 13.236,-11.527 14.481,-33.183 c0.8590000000000001,-14.896 -3.027,-23.62 -7.525,-28.756 l15.678,-3.794 C332.4055217494965,128.569 344.6025217494965,125.421 310.63152174949647,115.775 zM157.98952174949645,115.354 l30.688,-6.307 l103.708,-21.312 l15.451,-3.178 c-4.937,9.036 -4.73,21.402 -3.9130000000000003,29.35 c0.17900000000000002,1.798 0.38500000000000006,3.44 0.5850000000000001,4.688000000000001 L287.59652174949645,122.8 l-130.897,32.563 L157.98952174949645,115.354 zM26.16652174949646,147.337 l15.449,3.178 l99.597,20.474 l8.701,1.782 l0,0 l0,0 l26.093,5.363 l1.287,40.01 L42.75952174949646,184.673 l-13.263,-3.2960000000000003 c0.19500000000000003,-1.25 0.401,-2.89 0.5880000000000001,-4.6930000000000005 C30.89652174949646,168.742 31.10752174949646,156.373 26.16652174949646,147.337 zM20.16452174949646,96.757 c-0.18700000000000003,-8.743 1.371,-15.066 4.52,-18.28 c2.004,-2.052 4.369,-2.479 5.991,-2.479 c0.8570000000000001,0 1.474,0.11900000000000002 1.516,0.11900000000000002 l79.607,25.953 l39.717,12.949 l-1.303,40.289 L38.79052174949646,124.07 l-5.88,-1.6470000000000002 c-0.21600000000000003,-0.06100000000000001 -0.509,-0.10300000000000001 -0.7350000000000001,-0.11300000000000002 C31.716521749496458,122.277 20.70052174949646,121.263 20.16452174949646,96.757 zM140.03552174949647,280.866 L22.73652174949646,247.98 c-0.21700000000000003,-0.06300000000000001 -0.507,-0.10500000000000001 -0.7330000000000001,-0.11600000000000002 c-0.467,-0.031000000000000007 -11.488,-1.044 -12.021,-25.544 c-0.19000000000000003,-8.754 1.3760000000000001,-15.071 4.519,-18.288 c2.009,-2.052 4.375,-2.479 5.994,-2.479 c0.8590000000000001,0 1.474,0.11500000000000002 1.5190000000000001,0.11500000000000002 c0,0 0.005000000000000001,0 0,0 l119.316,38.908 L140.03552174949647,280.866 zM293.74052174949645,239.459 c0.18500000000000003,1.804 0.39100000000000007,3.443 0.5910000000000001,4.6930000000000005 l-147.812,36.771 l1.292,-40.01 l31.601,-6.497 l4.667,1.129 l17.492,-5.6850000000000005 l80.631,-16.569 l15.457,-3.18 C292.7175217494965,219.146 292.92252174949647,231.517 293.74052174949645,239.459 zM301.88252174949645,185.084 c-0.269,0.006000000000000002 -0.538,0.04200000000000001 -0.791,0.12200000000000001 l-11.148,3.121 l-106.148,29.764 l-1.298,-40.289 l34.826,-11.359 l84.327,-27.501 c0.011000000000000003,-0.005000000000000001 4.436,-0.988 7.684,2.315 c3.144,3.214 4.704,9.537 4.52,18.28 C313.3045217494965,184.035 302.28352174949646,185.053 301.88252174949645,185.084 z" id="svg_3" fill="#16a085" fill-opacity="1"/>
	</g>
</g><g id="svg_4">
</g><g id="svg_5">
</g><g id="svg_6">
</g><g id="svg_7">
</g><g id="svg_8">
</g><g id="svg_9">
</g><g id="svg_10">
</g><g id="svg_11">
</g><g id="svg_12">
</g><g id="svg_13">
</g><g id="svg_14">
</g><g id="svg_15">
</g><g id="svg_16">
</g><g id="svg_17">
</g><g id="svg_18">
</g></g></svg>