<svg xmlns="http://www.w3.org/2000/svg" xmlns:xlink="http://www.w3.org/1999/xlink" version="1.1" style="enable-background:new 0 0 512.001 512.001;" xml:space="preserve" width="512.0009765625" height="512.0009765625"><rect id="backgroundrect" width="100%" height="100%" x="0" y="0" fill="none" stroke="none"/>
















<g class="currentLayer" style=""><title>Layer 1</title><g id="svg_1" class="selected" fill="#16a085" fill-opacity="1">
	<g id="svg_2" fill="#16a085" fill-opacity="1">
		<g id="svg_3" fill="#16a085" fill-opacity="1">
			<circle cx="256" cy="109" r="20" id="svg_4" fill="#16a085" fill-opacity="1"/>
			<path d="M508.385,480.531l-49-70C455.642,405.184,449.526,402,443,402h-80V220c0-13.785,11.215-25,25-25     c13.785,0,25,11.215,25,25v103c0,11.046,8.954,20,20,20c11.046,0,20-8.954,20-20V194h39c11.046,0,20-8.954,20-20v-54     c0-8.036-4.81-15.292-12.211-18.421l-236.5-100c-4.99-2.109-10.62-2.105-15.606,0.012l-235.5,100C4.796,104.728,0,111.975,0,120     v54c0,11.046,8.954,20,20,20h33v216.015c-0.128,0.172-0.261,0.339-0.385,0.516l-49,70c-4.276,6.109-4.799,14.091-1.355,20.706     C5.704,507.852,12.543,512,20,512h472c7.458,0,14.296-4.149,17.74-10.764C513.184,494.622,512.661,486.64,508.385,480.531z      M40,154v-20.764l215.517-91.515L472,133.258V154H40z M323,220v182h-50V220c0-13.785,11.215-25,25-25     C311.785,195,323,206.215,323,220z M233,220v182h-50V220c0-13.785,11.215-25,25-25C221.785,195,233,206.215,233,220z M143,220     v182H93V220c0-13.785,11.215-25,25-25C131.785,195,143,206.215,143,220z M58.413,472l21-30h353.174l21,30H58.413z" id="svg_5" fill="#16a085" fill-opacity="1"/>
		</g>
	</g>
</g><g id="svg_6">
</g><g id="svg_7">
</g><g id="svg_8">
</g><g id="svg_9">
</g><g id="svg_10">
</g><g id="svg_11">
</g><g id="svg_12">
</g><g id="svg_13">
</g><g id="svg_14">
</g><g id="svg_15">
</g><g id="svg_16">
</g><g id="svg_17">
</g><g id="svg_18">
</g><g id="svg_19">
</g><g id="svg_20">
</g></g></svg>