<svg xmlns="http://www.w3.org/2000/svg" xmlns:xlink="http://www.w3.org/1999/xlink" version="1.1" enable-background="new 0 0 297 297" width="297" height="297"><rect id="backgroundrect" width="100%" height="100%" x="0" y="0" fill="none" stroke="none"/>
  
<g class="currentLayer" style=""><title>Layer 1</title><g id="svg_1" class="" fill="#338bf8" fill-opacity="1" stroke="#ffffff" stroke-opacity="1">
    <path style="" d="M45.62552174949646,61.873 c3.286,2.507 7.98,1.8760000000000001 10.488,-1.408 c22.071,-28.917 55.546,-45.5 91.843,-45.5 s69.772,16.584 91.843,45.5 c1.473,1.929 3.7,2.942 5.954,2.942 c1.582,0 3.179,-0.5 4.534,-1.534 c3.284,-2.508 3.914,-7.203 1.408,-10.488 C226.76852174949647,18.729 188.95752174949646,0 147.95652174949646,0 S69.14452174949646,18.729 44.21852174949646,51.385 C41.71152174949646,54.67 42.34152174949646,59.365 45.62552174949646,61.873 z" id="svg_2" fill="#338bf8" fill-opacity="1" stroke="#ffffff" stroke-opacity="1"/>
    <path style="" d="m227.49352174949647,101.786 c0,12.885 10.484,23.369 23.369,23.369 s23.369,-10.484 23.369,-23.369 s-10.484,-23.369 -23.369,-23.369 s-23.369,10.483 -23.369,23.369 z" id="svg_3" fill="#338bf8" fill-opacity="1" stroke="#ffffff" stroke-opacity="1"/>
    <path style="" d="m274.77852174949646,132.91 c-0.05400000000000001,-0.018000000000000002 -5.942,-1.8250000000000002 -5.942,-1.8250000000000002 c-2.132,-0.6510000000000001 -4.448,-0.25 -6.233,1.086 l-11.741,8.791 l-11.741,-8.791 c-1.786,-1.3370000000000002 -4.103,-1.738 -6.233,-1.086 c0,0 -5.888,1.807 -5.942,1.8250000000000002 c-9.474,3.159 -15.839,11.99 -15.839,21.976 v35.329 c0,1.363 0.3980000000000001,2.696 1.1480000000000001,3.834 l11.848,18.031 v47.352 c0,3.857 3.126,6.983 6.983,6.983 h39.553 c3.857,0 6.983,-3.126 6.983,-6.983 v-47.352 l11.848,-18.031 c0.7490000000000001,-1.139 1.1480000000000001,-2.472 1.1480000000000001,-3.834 v-35.329 c-5.684340000000001e-14,-9.986 -6.366,-18.817 -15.84,-21.976 z" id="svg_4" fill="#338bf8" fill-opacity="1" stroke="#ffffff" stroke-opacity="1"/>
    <path style="" d="m45.05052174949646,125.155 c12.885,0 23.369,-10.484 23.369,-23.369 s-10.484,-23.369 -23.369,-23.369 s-23.37,10.483 -23.37,23.369 s10.484,23.369 23.37,23.369 z" id="svg_5" fill="#338bf8" fill-opacity="1" stroke="#ffffff" stroke-opacity="1"/>
    <path style="" d="m68.96652174949647,132.91 c-0.05400000000000001,-0.018000000000000002 -5.942,-1.8250000000000002 -5.942,-1.8250000000000002 c-2.133,-0.6510000000000001 -4.447,-0.25 -6.233,1.086 l-11.741,8.791 l-11.741,-8.791 c-1.7850000000000001,-1.3370000000000002 -4.103,-1.738 -6.233,-1.086 c0,0 -5.888,1.807 -5.942,1.8250000000000002 c-9.474,3.159 -15.839,11.99 -15.839,21.976 v35.329 c0,1.363 0.3980000000000001,2.696 1.1480000000000001,3.834 l11.848,18.031 v47.352 c0,3.857 3.126,6.983 6.983,6.983 h39.552 c3.857,0 6.983,-3.126 6.983,-6.983 v-47.352 l11.848,-18.031 c0.7490000000000001,-1.139 1.1480000000000001,-2.472 1.1480000000000001,-3.834 v-35.329 c0,-9.986 -6.366,-18.817 -15.839,-21.976 z" id="svg_6" fill="#338bf8" fill-opacity="1" stroke="#ffffff" stroke-opacity="1"/>
    <path style="" d="m178.09852174949646,68.851 c0,-16.62 -13.522,-30.142 -30.142,-30.142 s-30.142,13.522 -30.142,30.142 c0,16.621 13.522,30.142 30.142,30.142 s30.142,-13.521 30.142,-30.142 z" id="svg_7" fill="#338bf8" fill-opacity="1" stroke="#ffffff" stroke-opacity="1"/>
    <path style="" d="m181.06352174949646,113.601 l-0.05000000000000001,-0.016000000000000004 l-8.603,-2.64 c-1.357,-0.41700000000000004 -2.807,0.30100000000000005 -3.295,1.6400000000000001 l-18.09,49.635 c-1.044,2.863 -5.093,2.863 -6.1370000000000005,0 l-18.09,-49.635 c-0.3940000000000001,-1.081 -1.4140000000000001,-1.7590000000000001 -2.508,-1.7590000000000001 c-0.259,0 -9.38,2.755 -9.38,2.755 c-10.99,3.662 -18.332,13.85 -18.332,25.37 v52.506 c0,0.521 0.15300000000000002,1.031 0.43900000000000006,1.467 l18.876,28.724 v72.68 c0,1.476 1.196,2.672 2.672,2.672 h58.783 c1.476,0 2.672,-1.196 2.672,-2.672 v-72.68 l18.876,-28.724 c0.28600000000000003,-0.43600000000000005 0.43900000000000006,-0.9460000000000001 0.43900000000000006,-1.467 v-52.644 c-0.0010000000000000002,-11.47 -7.372,-21.641000000000002 -18.272,-25.212 z" id="svg_8" fill="#338bf8" fill-opacity="1" stroke="#ffffff" stroke-opacity="1"/>
    <path style="" d="m155.02452174949647,112.556 c-0.7470000000000001,-0.8140000000000001 -1.84,-1.224 -2.946,-1.224 h-8.245 c-1.105,0 -2.198,0.41000000000000003 -2.946,1.224 c-1.157,1.2610000000000001 -1.3250000000000002,3.082 -0.504,4.505 l4.407,6.644 l-2.063,17.405 l4.063,10.808 c0.3960000000000001,1.087 1.933,1.087 2.33,0 l4.063,-10.808 l-2.063,-17.405 l4.407,-6.644 c0.8220000000000001,-1.423 0.6540000000000001,-3.244 -0.503,-4.505 z" id="svg_9" fill="#338bf8" fill-opacity="1" stroke="#ffffff" stroke-opacity="1"/>
  </g><g class="selected" fill="#16a085" fill-opacity="1" stroke="#ffffff" stroke-opacity="1" id="svg_10">
    <path style="" d="M45.62552174949646,61.873 c3.286,2.507 7.98,1.8760000000000001 10.488,-1.408 c22.071,-28.917 55.546,-45.5 91.843,-45.5 s69.772,16.584 91.843,45.5 c1.473,1.929 3.7,2.942 5.954,2.942 c1.582,0 3.179,-0.5 4.534,-1.534 c3.284,-2.508 3.914,-7.203 1.408,-10.488 C226.76852174949647,18.729 188.95752174949646,0 147.95652174949646,0 S69.14452174949646,18.729 44.21852174949646,51.385 C41.71152174949646,54.67 42.34152174949646,59.365 45.62552174949646,61.873 z" id="svg_12" fill="#16a085" fill-opacity="1" stroke="#ffffff" stroke-opacity="1"/>
    <path style="" d="m227.49352174949647,101.786 c0,12.885 10.484,23.369 23.369,23.369 s23.369,-10.484 23.369,-23.369 s-10.484,-23.369 -23.369,-23.369 s-23.369,10.483 -23.369,23.369 z" id="svg_14" fill="#16a085" fill-opacity="1" stroke="#ffffff" stroke-opacity="1"/>
    <path style="" d="m274.77852174949646,132.91 c-0.05400000000000001,-0.018000000000000002 -5.942,-1.8250000000000002 -5.942,-1.8250000000000002 c-2.132,-0.6510000000000001 -4.448,-0.25 -6.233,1.086 l-11.741,8.791 l-11.741,-8.791 c-1.786,-1.3370000000000002 -4.103,-1.738 -6.233,-1.086 c0,0 -5.888,1.807 -5.942,1.8250000000000002 c-9.474,3.159 -15.839,11.99 -15.839,21.976 v35.329 c0,1.363 0.3980000000000001,2.696 1.1480000000000001,3.834 l11.848,18.031 v47.352 c0,3.857 3.126,6.983 6.983,6.983 h39.553 c3.857,0 6.983,-3.126 6.983,-6.983 v-47.352 l11.848,-18.031 c0.7490000000000001,-1.139 1.1480000000000001,-2.472 1.1480000000000001,-3.834 v-35.329 c-5.684340000000001e-14,-9.986 -6.366,-18.817 -15.84,-21.976 z" id="svg_16" fill="#16a085" fill-opacity="1" stroke="#ffffff" stroke-opacity="1"/>
    <path style="" d="m45.05052174949646,125.155 c12.885,0 23.369,-10.484 23.369,-23.369 s-10.484,-23.369 -23.369,-23.369 s-23.37,10.483 -23.37,23.369 s10.484,23.369 23.37,23.369 z" id="svg_18" fill="#16a085" fill-opacity="1" stroke="#ffffff" stroke-opacity="1"/>
    <path style="" d="m68.96652174949647,132.91 c-0.05400000000000001,-0.018000000000000002 -5.942,-1.8250000000000002 -5.942,-1.8250000000000002 c-2.133,-0.6510000000000001 -4.447,-0.25 -6.233,1.086 l-11.741,8.791 l-11.741,-8.791 c-1.7850000000000001,-1.3370000000000002 -4.103,-1.738 -6.233,-1.086 c0,0 -5.888,1.807 -5.942,1.8250000000000002 c-9.474,3.159 -15.839,11.99 -15.839,21.976 v35.329 c0,1.363 0.3980000000000001,2.696 1.1480000000000001,3.834 l11.848,18.031 v47.352 c0,3.857 3.126,6.983 6.983,6.983 h39.552 c3.857,0 6.983,-3.126 6.983,-6.983 v-47.352 l11.848,-18.031 c0.7490000000000001,-1.139 1.1480000000000001,-2.472 1.1480000000000001,-3.834 v-35.329 c0,-9.986 -6.366,-18.817 -15.839,-21.976 z" id="svg_20" fill="#16a085" fill-opacity="1" stroke="#ffffff" stroke-opacity="1"/>
    <path style="" d="m178.09852174949646,68.851 c0,-16.62 -13.522,-30.142 -30.142,-30.142 s-30.142,13.522 -30.142,30.142 c0,16.621 13.522,30.142 30.142,30.142 s30.142,-13.521 30.142,-30.142 z" id="svg_22" fill="#16a085" fill-opacity="1" stroke="#ffffff" stroke-opacity="1"/>
    <path style="" d="m181.06352174949646,113.601 l-0.05000000000000001,-0.016000000000000004 l-8.603,-2.64 c-1.357,-0.41700000000000004 -2.807,0.30100000000000005 -3.295,1.6400000000000001 l-18.09,49.635 c-1.044,2.863 -5.093,2.863 -6.1370000000000005,0 l-18.09,-49.635 c-0.3940000000000001,-1.081 -1.4140000000000001,-1.7590000000000001 -2.508,-1.7590000000000001 c-0.259,0 -9.38,2.755 -9.38,2.755 c-10.99,3.662 -18.332,13.85 -18.332,25.37 v52.506 c0,0.521 0.15300000000000002,1.031 0.43900000000000006,1.467 l18.876,28.724 v72.68 c0,1.476 1.196,2.672 2.672,2.672 h58.783 c1.476,0 2.672,-1.196 2.672,-2.672 v-72.68 l18.876,-28.724 c0.28600000000000003,-0.43600000000000005 0.43900000000000006,-0.9460000000000001 0.43900000000000006,-1.467 v-52.644 c-0.0010000000000000002,-11.47 -7.372,-21.641000000000002 -18.272,-25.212 z" id="svg_24" fill="#16a085" fill-opacity="1" stroke="#ffffff" stroke-opacity="1"/>
    <path style="" d="m155.02452174949647,112.556 c-0.7470000000000001,-0.8140000000000001 -1.84,-1.224 -2.946,-1.224 h-8.245 c-1.105,0 -2.198,0.41000000000000003 -2.946,1.224 c-1.157,1.2610000000000001 -1.3250000000000002,3.082 -0.504,4.505 l4.407,6.644 l-2.063,17.405 l4.063,10.808 c0.3960000000000001,1.087 1.933,1.087 2.33,0 l4.063,-10.808 l-2.063,-17.405 l4.407,-6.644 c0.8220000000000001,-1.423 0.6540000000000001,-3.244 -0.503,-4.505 z" id="svg_26" fill="#16a085" fill-opacity="1" stroke="#ffffff" stroke-opacity="1"/>
  </g></g></svg>