<svg xmlns="http://www.w3.org/2000/svg" xmlns:xlink="http://www.w3.org/1999/xlink" version="1.1" style="enable-background:new 0 0 512 512;" xml:space="preserve" width="512" height="512"><rect id="backgroundrect" width="100%" height="100%" x="0" y="0" fill="none" stroke="none"/>

















<g class="currentLayer" style=""><title>Layer 1</title><g id="svg_1" class="" fill="#16a085" fill-opacity="1">
	<g id="svg_2" fill="#16a085" fill-opacity="1">
		<path d="M376,33c-60.659,0-99.595,42.012-120,79.849C235.595,75.011,196.659,33,136,33C59.037,33,0,95.446,0,178.268    c0,21.61,4.327,41.561,12.294,60.732h114.434l25.854-51.709c5.098-10.166,21.738-10.166,26.836,0L226,280.456l16.582-33.164    c5.098-10.166,21.738-10.166,26.836,0L286,280.456l46.582-93.164c5.098-10.166,21.738-10.166,26.836,0L385.272,239h114.434    C507.673,219.829,512,199.878,512,178.268C512,95.446,452.963,33,376,33z" id="svg_3" fill="#16a085" fill-opacity="1"/>
	</g>
</g><g id="svg_4" class="" fill="#16a085" fill-opacity="1">
	<g id="svg_5" fill="#16a085" fill-opacity="1">
		<path d="M376,269c-5.684,0-10.869-3.208-13.418-8.291L346,227.545l-46.582,93.164C296.869,325.792,291.684,329,286,329    c-5.684,0-10.869-3.208-13.418-8.291L256,287.545l-16.582,33.164c-5.098,10.166-21.738,10.166-26.836,0L166,227.545    l-16.582,33.164C146.869,265.792,141.684,269,136,269H28.037c30.873,48.574,86.474,94.713,156.024,153.413    c19.526,16.479,40.298,34.014,62.109,52.925c2.827,2.446,6.328,3.662,9.829,3.662s7.002-1.216,9.829-3.662    c21.812-18.911,42.583-36.445,62.109-52.925c69.551-58.7,125.151-104.839,156.024-153.413H376z" id="svg_6" fill="#16a085" fill-opacity="1"/>
	</g>
</g><g id="svg_7" class="" fill="#338bf8" fill-opacity="1">
</g><g id="svg_8" class="" fill="#338bf8" fill-opacity="1">
</g><g id="svg_9" class="" fill="#338bf8" fill-opacity="1">
</g><g id="svg_10" class="" fill="#338bf8" fill-opacity="1">
</g><g id="svg_11" class="" fill="#338bf8" fill-opacity="1">
</g><g id="svg_12" class="" fill="#338bf8" fill-opacity="1">
</g><g id="svg_13" class="" fill="#338bf8" fill-opacity="1">
</g><g id="svg_14" class="" fill="#338bf8" fill-opacity="1">
</g><g id="svg_15" class="" fill="#338bf8" fill-opacity="1">
</g><g id="svg_16" class="" fill="#338bf8" fill-opacity="1">
</g><g id="svg_17" class="" fill="#338bf8" fill-opacity="1">
</g><g id="svg_18" class="" fill="#338bf8" fill-opacity="1">
</g><g id="svg_19" class="" fill="#338bf8" fill-opacity="1">
</g><g id="svg_20" class="" fill="#338bf8" fill-opacity="1">
</g><g id="svg_21" class="" fill="#338bf8" fill-opacity="1">
</g></g></svg>