<svg xmlns="http://www.w3.org/2000/svg" xmlns:xlink="http://www.w3.org/1999/xlink" version="1.1" style="" xml:space="preserve" width="27.020000457763672" height="27.020000457763672"><rect id="backgroundrect" width="100%" height="100%" x="0" y="0" fill="none" stroke="none"/>
















<g class="currentLayer" style=""><title>Layer 1</title><g id="svg_1" class="selected" fill="#16a085" fill-opacity="1">
	<path style="" d="M3.674,24.876c0,0-0.024,0.604,0.566,0.604c0.734,0,6.811-0.008,6.811-0.008l0.01-5.581   c0,0-0.096-0.92,0.797-0.92h2.826c1.056,0,0.991,0.92,0.991,0.92l-0.012,5.563c0,0,5.762,0,6.667,0   c0.749,0,0.715-0.752,0.715-0.752V14.413l-9.396-8.358l-9.975,8.358C3.674,14.413,3.674,24.876,3.674,24.876z" id="svg_2" fill="#16a085" fill-opacity="1"/>
	<path style="" d="M0,13.635c0,0,0.847,1.561,2.694,0l11.038-9.338l10.349,9.28c2.138,1.542,2.939,0,2.939,0   L13.732,1.54L0,13.635z" id="svg_3" fill="#16a085" fill-opacity="1"/>
	<polygon style="" points="23.83,4.275 21.168,4.275 21.179,7.503 23.83,9.752  " id="svg_4" fill="#16a085" fill-opacity="1"/>
</g><g id="svg_5" class="" fill="#338bf8" fill-opacity="1">
</g><g id="svg_6" class="" fill="#338bf8" fill-opacity="1">
</g><g id="svg_7" class="" fill="#338bf8" fill-opacity="1">
</g><g id="svg_8" class="" fill="#338bf8" fill-opacity="1">
</g><g id="svg_9" class="" fill="#338bf8" fill-opacity="1">
</g><g id="svg_10" class="" fill="#338bf8" fill-opacity="1">
</g><g id="svg_11" class="" fill="#338bf8" fill-opacity="1">
</g><g id="svg_12" class="" fill="#338bf8" fill-opacity="1">
</g><g id="svg_13" class="" fill="#338bf8" fill-opacity="1">
</g><g id="svg_14" class="" fill="#338bf8" fill-opacity="1">
</g><g id="svg_15" class="" fill="#338bf8" fill-opacity="1">
</g><g id="svg_16" class="" fill="#338bf8" fill-opacity="1">
</g><g id="svg_17" class="" fill="#338bf8" fill-opacity="1">
</g><g id="svg_18" class="" fill="#338bf8" fill-opacity="1">
</g><g id="svg_19" class="" fill="#338bf8" fill-opacity="1">
</g></g></svg>