<svg xmlns="http://www.w3.org/2000/svg" xmlns:xlink="http://www.w3.org/1999/xlink" version="1.1" width="47" height="47.001" style="" xml:space="preserve"><rect id="backgroundrect" width="100%" height="100%" x="0" y="0" fill="none" stroke="none"/>
















<g class="currentLayer" style=""><title>Layer 1</title><g id="svg_1" class="" fill-opacity="1" fill="#16a085">
	<g id="Layer_1_66_" fill="#16a085">
		<g id="svg_2" fill="#16a085">
			<path d="M39.524,0H7.478c-1.18,0-2.136,0.957-2.136,2.137v42.727c0,1.18,0.957,2.137,2.136,2.137h32.046     c1.18,0,2.136-0.957,2.136-2.137V2.137C41.66,0.957,40.704,0,39.524,0z M37.387,4.272v6.409H9.614V4.272H37.387z M9.614,42.729     V14.954h27.773v27.772H9.614V42.729z" id="svg_3" fill="#16a085"/>
			<path d="M17.253,16.844h-4.435c-0.59,0-1.068,0.479-1.068,1.068v4.438c0,0.59,0.479,1.068,1.068,1.068h4.435     c0.59,0,1.068-0.479,1.068-1.068v-4.438C18.322,17.321,17.845,16.844,17.253,16.844z" id="svg_4" fill="#16a085"/>
			<path d="M25.717,16.844h-4.434c-0.59,0-1.068,0.479-1.068,1.068v4.438c0,0.59,0.478,1.068,1.068,1.068h4.434     c0.59,0,1.068-0.479,1.068-1.068v-4.438C26.786,17.321,26.307,16.844,25.717,16.844z" id="svg_5" fill="#16a085"/>
			<path d="M34.182,16.844h-4.435c-0.59,0-1.067,0.479-1.067,1.068v4.438c0,0.59,0.478,1.068,1.067,1.068h4.435     c0.59,0,1.068-0.479,1.068-1.068v-4.438C35.25,17.321,34.772,16.844,34.182,16.844z" id="svg_6" fill="#16a085"/>
			<path d="M17.253,25.555h-4.435c-0.59,0-1.068,0.478-1.068,1.067v4.438c0,0.59,0.479,1.067,1.068,1.067h4.435     c0.59,0,1.068-0.478,1.068-1.067v-4.438C18.322,26.031,17.845,25.555,17.253,25.555z" id="svg_7" fill="#16a085"/>
			<path d="M25.717,25.555h-4.434c-0.59,0-1.068,0.478-1.068,1.067v4.438c0,0.59,0.478,1.067,1.068,1.067h4.434     c0.59,0,1.068-0.478,1.068-1.067v-4.438C26.786,26.031,26.307,25.555,25.717,25.555z" id="svg_8" fill="#16a085"/>
			<path d="M17.253,34.266h-4.435c-0.59,0-1.068,0.478-1.068,1.066v4.438c0,0.592,0.479,1.068,1.068,1.068h4.435     c0.59,0,1.068-0.479,1.068-1.068v-4.438C18.322,34.742,17.845,34.266,17.253,34.266z" id="svg_9" fill="#16a085"/>
			<path d="M25.717,34.266h-4.434c-0.59,0-1.068,0.478-1.068,1.066v4.438c0,0.592,0.478,1.068,1.068,1.068h4.434     c0.59,0,1.068-0.479,1.068-1.068v-4.438C26.786,34.742,26.307,34.266,25.717,34.266z" id="svg_10" fill="#16a085"/>
			<path d="M34.182,25.555h-4.435c-0.59,0-1.067,0.478-1.067,1.067V39.77c0,0.592,0.478,1.068,1.067,1.068h4.435     c0.59,0,1.068-0.479,1.068-1.068V26.622C35.25,26.031,34.772,25.555,34.182,25.555z" id="svg_11" fill="#16a085"/>
		</g>
	</g>
</g><g id="svg_12" class="" fill-opacity="1" fill="#16a085">
</g><g id="svg_13" class="" fill-opacity="1" fill="#16a085">
</g><g id="svg_14" class="" fill-opacity="1" fill="#16a085">
</g><g id="svg_15" class="" fill-opacity="1" fill="#16a085">
</g><g id="svg_16" class="" fill-opacity="1" fill="#16a085">
</g><g id="svg_17" class="" fill-opacity="1" fill="#16a085">
</g><g id="svg_18" class="" fill-opacity="1" fill="#16a085">
</g><g id="svg_19" class="" fill-opacity="1" fill="#16a085">
</g><g id="svg_20" class="" fill-opacity="1" fill="#16a085">
</g><g id="svg_21" class="" fill-opacity="1" fill="#16a085">
</g><g id="svg_22" class="" fill-opacity="1" fill="#16a085">
</g><g id="svg_23" class="" fill-opacity="1" fill="#16a085">
</g><g id="svg_24" class="" fill-opacity="1" fill="#16a085">
</g><g id="svg_25" class="" fill-opacity="1" fill="#16a085">
</g><g id="svg_26" class="" fill-opacity="1" fill="#16a085">
</g></g></svg>