<?xml version="1.0" encoding="UTF-8"?>
<svg width="20px" height="20px" viewBox="0 0 20 20" version="1.1" xmlns="http://www.w3.org/2000/svg" xmlns:xlink="http://www.w3.org/1999/xlink">
    <!-- Generator: sketchtool 47.1 (45422) - http://www.bohemiancoding.com/sketch -->
    <title>F545850F-D3B1-4526-8A95-CE373C55889E</title>
    <desc>Created with sketchtool.</desc>
    <defs></defs>
    <g id="Tədrisin-idarəetməsi" stroke="none" stroke-width="1" fill="none" fill-rule="evenodd">
        <g id="unibook_light_tedrisin_idareetmesi" transform="translate(-46.000000, -550.000000)" fill-rule="nonzero" fill="#16A085">
            <g id="Sidebar" transform="translate(15.000000, 71.000000)">
                <g id="Navigation-Bar" transform="translate(0.000000, 421.000000)">
                    <g id="Group-17" transform="translate(31.000000, 54.000000)">
                        <g id="icon_tedrisin_planpashdirilmasi_on" transform="translate(0.000000, 4.000000)">
                            <path d="M15.8203125,11.796875 C13.5589453,11.796875 11.71875,13.6370703 11.71875,15.8984375 C11.71875,18.1598047 13.5589453,20 15.8203125,20 C18.0816797,20 20,18.1598047 20,15.8984375 C20,13.6370703 18.0816797,11.796875 15.8203125,11.796875 Z M16.9921875,16.484375 L15.8203125,16.484375 C15.4964453,16.484375 15.234375,16.2223047 15.234375,15.8984375 L15.234375,14.7265625 C15.234375,14.4026953 15.4964453,14.140625 15.8203125,14.140625 C16.1441797,14.140625 16.40625,14.4026953 16.40625,14.7265625 L16.40625,15.3125 L16.9921875,15.3125 C17.3160547,15.3125 17.578125,15.5745703 17.578125,15.8984375 C17.578125,16.2223047 17.3160547,16.484375 16.9921875,16.484375 Z" id="Shape"></path>
                            <path d="M2.34375,14.7265625 L1.171875,14.7265625 C0.524648438,14.7265625 0,15.2512109 0,15.8984375 C0,16.5455859 0.524648438,17.0703125 1.171875,17.0703125 L2.34375,17.0703125 C2.99097656,17.0703125 3.515625,16.5455859 3.515625,15.8984375 C3.515625,15.2512109 2.99097656,14.7265625 2.34375,14.7265625 Z" id="Shape"></path>
                            <path d="M2.34375,8.8671875 L1.171875,8.8671875 C0.524648438,8.8671875 0,9.39183594 0,10.0390625 C0,10.6862109 0.524648438,11.2109375 1.171875,11.2109375 L2.34375,11.2109375 C2.99097656,11.2109375 3.515625,10.6862109 3.515625,10.0390625 C3.515625,9.39183594 2.99097656,8.8671875 2.34375,8.8671875 Z" id="Shape"></path>
                            <path d="M2.34375,2.9296875 L1.171875,2.9296875 C0.524648438,2.9296875 0,3.45433594 0,4.1015625 C0,4.74871094 0.524648438,5.2734375 1.171875,5.2734375 L2.34375,5.2734375 C2.99097656,5.2734375 3.515625,4.74871094 3.515625,4.1015625 C3.515625,3.45433594 2.99097656,2.9296875 2.34375,2.9296875 Z" id="Shape"></path>
                            <path d="M16.9921875,0 L4.1015625,0 C3.13226563,0 2.34375,0.788515625 2.34375,1.7578125 C3.63636719,1.7578125 4.6875,2.80894531 4.6875,4.1015625 C4.6875,5.39417969 3.63636719,6.4453125 2.34375,6.4453125 L2.34375,7.6953125 C3.63636719,7.6953125 4.6875,8.74644531 4.6875,10.0390625 C4.6875,11.3316797 3.63636719,12.3828125 2.34375,12.3828125 L2.34375,13.5546875 C3.63636719,13.5546875 4.6875,14.6058203 4.6875,15.8984375 C4.6875,17.1910547 3.63636719,18.2421875 2.34375,18.2421875 C2.34375,19.2114844 3.13226563,20 4.1015625,20 L12.5466406,20 C11.3377344,19.0328125 10.546875,17.5635547 10.546875,15.8984375 C10.546875,12.9905078 12.9123828,10.625 15.8203125,10.625 C16.9039844,10.625 17.9894141,10.955 18.828125,11.5176953 L18.828125,1.7578125 C18.828125,0.788515625 17.9614844,0 16.9921875,0 Z M10.3752344,12.7970703 L8.03144531,15.1408203 C7.91699219,15.2552734 7.76707031,15.3125 7.6171875,15.3125 C7.46730469,15.3125 7.31734375,15.2552734 7.20292969,15.1408203 L5.86625,13.8041406 C5.63738281,13.5752734 5.63738281,13.2044531 5.86625,12.9755859 C6.09511719,12.7467187 6.4659375,12.7467187 6.69480469,12.9755859 L7.6171875,13.8980078 L9.54667969,11.9685156 C9.77554688,11.7396484 10.1463672,11.7396484 10.3752344,11.9685156 C10.6041016,12.1973828 10.6041016,12.5682031 10.3752344,12.7970703 Z M10.3752344,8.10957031 L8.03148437,10.4533203 C7.91703125,10.5677734 7.76710938,10.625 7.61722656,10.625 C7.46734375,10.625 7.31738281,10.5677734 7.20296875,10.4533203 L5.86628906,9.11664063 C5.63734375,8.88777344 5.63734375,8.51699219 5.86625,8.288125 C6.09511719,8.05925781 6.4659375,8.05925781 6.69480469,8.288125 L7.6171875,9.21050781 L9.54667969,7.28101563 C9.77554687,7.05214844 10.1463672,7.05214844 10.3752344,7.28101563 C10.6041016,7.50988281 10.6041016,7.88070313 10.3752344,8.10957031 Z M10.3752344,3.34394531 L8.03148437,5.68769531 C7.91703125,5.80214844 7.76710938,5.859375 7.61722656,5.859375 C7.46734375,5.859375 7.31738281,5.80214844 7.20296875,5.68769531 L5.86628906,4.35101563 C5.63734375,4.12214844 5.63734375,3.75136719 5.86625,3.5225 C6.09511719,3.29363281 6.4659375,3.29363281 6.69480469,3.5225 L7.6171875,4.44488281 L9.54667969,2.51539062 C9.77554687,2.28652344 10.1463672,2.28652344 10.3752344,2.51539062 C10.6041016,2.74425781 10.6041016,3.11507812 10.3752344,3.34394531 Z M15.8203125,9.453125 L12.3046875,9.453125 C11.9808203,9.453125 11.71875,9.19105469 11.71875,8.8671875 C11.71875,8.54332031 11.9808203,8.28125 12.3046875,8.28125 L15.8203125,8.28125 C16.1441797,8.28125 16.40625,8.54332031 16.40625,8.8671875 C16.40625,9.19105469 16.1441797,9.453125 15.8203125,9.453125 Z M15.8203125,4.6875 L12.3046875,4.6875 C11.9808203,4.6875 11.71875,4.42542969 11.71875,4.1015625 C11.71875,3.77769531 11.9808203,3.515625 12.3046875,3.515625 L15.8203125,3.515625 C16.1441797,3.515625 16.40625,3.77769531 16.40625,4.1015625 C16.40625,4.42542969 16.1441797,4.6875 15.8203125,4.6875 Z" id="Shape"></path>
                        </g>
                    </g>
                </g>
            </g>
        </g>
    </g>
</svg>