<?xml version="1.0" encoding="UTF-8"?>
<svg width="22px" height="22px" viewBox="0 0 22 22" version="1.1" xmlns="http://www.w3.org/2000/svg" xmlns:xlink="http://www.w3.org/1999/xlink">
    <!-- Generator: sketchtool 47.1 (45422) - http://www.bohemiancoding.com/sketch -->
    <title>D9099EE1-C764-493F-9041-59AAE53FB525</title>
    <desc>Created with sketchtool.</desc>
    <defs></defs>
    <g id="Tədrisin-idarəetməsi" stroke="none" stroke-width="1" fill="none" fill-rule="evenodd">
        <g id="unibook_light_tedrisin_idareetmesi" transform="translate(-45.000000, -597.000000)" fill-rule="nonzero" fill="#16A085">
            <g id="Sidebar" transform="translate(15.000000, 71.000000)">
                <g id="Navigation-Bar" transform="translate(0.000000, 421.000000)">
                    <g id="Group-19" transform="translate(30.000000, 103.000000)">
                        <g id="icon_fenn_qruplari_on" transform="translate(0.000000, 2.000000)">
                            <path d="M20.5032924,1 L9.49670764,1 C9.22236565,1 9,1.21870673 9,1.48853457 L9,5.29514132 L9.55087765,4.95873716 C9.69104814,4.87309501 9.84075435,4.81532508 9.99337052,4.78357804 L9.99337052,1.97706914 L20.0065399,1.97706914 L20.0065399,9.02288683 L9.99341528,9.02288683 L9.99341528,7.88289946 L9,8.48957176 L9,9.51146543 C9,9.78129327 9.22236565,10 9.49670764,10 L20.5032924,10 C20.7775896,10 21,9.78129327 21,9.51146543 L21,1.48853457 C21,1.21870673 20.7775896,1 20.5032924,1 Z" id="Shape"></path>
                            <path d="M12.9295223,3.14471204 C12.8173322,2.97989847 12.6110932,2.95171722 12.4688475,3.08158248 L11,4.42310797 C11.1402471,4.52928852 11.2632757,4.67153038 11.3574784,4.84725139 C11.3841903,4.89698039 11.4073662,4.94813403 11.4279671,5 L12.8750607,3.67833049 C13.0173449,3.54842071 13.0417123,3.30948109 12.9295223,3.14471204 Z" id="Shape"></path>
                            <circle id="Oval" cx="5.5" cy="1.5" r="1.5"></circle>
                            <path d="M10.9011702,5.19549969 C10.7099411,4.8823334 10.3053312,4.78607452 9.99729432,4.98049841 L8.66793485,5.8198395 C8.66239692,4.69873972 8.66533628,5.29370801 8.66180053,4.57172305 C8.65749798,3.70508984 7.96069823,3 7.10845298,3 L6.46268741,3 C5.91098151,4.45506005 6.08870655,3.91493594 5.62041043,5.15001282 L5.81734784,4.27792118 C5.83097968,4.21259337 5.8210966,4.14449302 5.78944518,4.0860099 L5.52260202,3.59245568 L5.75941255,3.1545254 C5.79472752,3.08919759 5.74816628,3.0091407 5.67485257,3.0091407 L5.02431587,3.0091407 C4.95104476,3.0091407 4.90439832,3.08919759 4.93975589,3.1545254 L5.17703501,3.59336541 L4.90968066,4.08782937 C4.87866824,4.14522947 4.86852956,4.21194355 4.88105381,4.27614502 L5.05166474,5.15001282 C4.95969245,4.90745949 4.32389517,3.2306401 4.23643843,3 L3.57759482,3 C2.72539217,3 2.02854982,3.70504652 2.02424727,4.57172305 L2.00000817,9.47564106 C1.99821899,9.84430133 2.29057924,10.1446446 2.65310084,10.1465074 C2.65425103,10.1465074 2.65531602,10.1465074 2.6564662,10.1465074 C3.01741162,10.1465074 3.31096466,9.84984639 3.31275384,9.48235579 L3.33699294,4.57843778 C3.33699294,4.577658 3.33699294,4.57687823 3.33699294,4.57614177 C3.33801533,4.50336278 3.39658962,4.44505294 3.46815675,4.44561611 C3.53972388,4.44613596 3.59740358,4.50531222 3.59740358,4.57809121 L3.59770178,11.5259293 C4.19861009,11.4999368 4.75538533,11.7203532 5.17307326,12.1074248 L5.17307326,9.39692711 L5.51314494,9.39692711 L5.51314494,12.5061931 C5.75268183,12.8643697 5.89287673,13.296495 5.89287673,13.7613708 C5.89287673,14.1849186 5.77649494,14.5813475 5.57470119,14.9193799 C5.78199027,14.9203763 5.98331543,14.9483616 6.1753113,15 C6.43414576,14.7716559 6.74550538,14.6035711 7.08851642,14.5175792 C7.08851642,2.41625181 7.07424559,9.89840904 7.07424559,4.57900095 C7.07424559,4.50193319 7.13554625,4.43946455 7.21133073,4.43933459 C7.28711521,4.43916131 7.34867146,4.50137002 7.34901226,4.57843778 C7.35131263,5.04660599 7.35855454,6.51011361 7.36106791,7.0196099 C7.3622607,7.26129681 7.49184832,7.48348935 7.6998616,7.60041227 C7.90749148,7.71711859 8.161427,7.71105367 8.36368934,7.58334386 L10.6897915,6.11463775 C10.9977006,5.92025718 11.0923992,5.50866597 10.9011702,5.19549969 Z" id="Shape"></path>
                            <circle id="Oval" cx="18.5" cy="13.5" r="1.5"></circle>
                            <path d="M21.9923823,17.5113933 C21.9881148,16.6780097 21.2975767,16 20.4529697,16 C20.0885567,16 17.3985929,16 17.0716303,16 C17.2166855,16.2781619 17.2991242,16.593042 17.2991242,16.9268126 C17.2991242,17.2812053 17.203205,17.6514581 17,17.9808209 C17.7539524,18.0108882 18.4145781,18.4101851 18.8006876,19 L20.4191088,19 L20.4191088,17.5269386 C20.4191088,17.4544465 20.4773384,17.3950203 20.5507634,17.3925409 C20.6241884,17.3900615 20.6864461,17.4454735 20.6913916,17.5177688 C20.6913916,17.5177688 20.6913916,17.5178082 20.6913916,17.5178475 L20.6989694,19 L22,19 L21.9923823,17.5113933 Z" id="Shape"></path>
                            <path d="M11.7075039,17.0706133 C11.7075039,16.6843958 11.7885716,16.3203336 11.93099,16 C11.0964623,16 10.1165586,16 9.0770485,16 C9.20869829,16.3105763 9.28320631,16.6604503 9.28320631,17.0307339 C9.28320631,17.4658272 9.17969135,17.8778254 9,18.2271622 C9.58992151,18.2304743 10.1341903,18.5197905 10.5274334,19 C10.9086566,18.5603861 11.4283168,18.2877199 12,18.2840945 C11.8015015,17.9057992 11.7075039,17.481045 11.7075039,17.0706133 Z" id="Shape"></path>
                            <path d="M11.5000222,12 C10.6716464,12 10,12.6714789 10,13.5 C10,14.326613 10.6703596,15 11.5000222,15 C12.3217418,15 13,14.3359317 13,13.5 C13,12.6724107 12.3297292,12 11.5000222,12 Z" id="Shape"></path>
                            <path d="M5.64420522,16.9020148 C5.64420522,16.5788442 5.73406121,16.2733359 5.89277921,16.0020559 C5.82584661,15.9992361 6.10740454,16.0001369 1.7819599,16.0001369 C0.814124601,16.0001369 0.0137356537,16.6713073 0.00882021913,17.5041414 L0,19 C0.684807326,19 0.822577311,19 1.49856442,19 L1.5073387,17.5106032 C1.50779808,17.4368207 1.57813014,17.3773717 1.66458667,17.3775675 C1.75104319,17.3778025 1.8209618,17.4375648 1.8209618,17.511269 L1.8209618,19 L3.92159805,19 C4.37432336,18.3830308 5.15275364,17.9956333 6,17.9658696 C5.77003116,17.6501399 5.64420522,17.2858093 5.64420522,16.9020148 Z" id="Shape"></path>
                            <path d="M3.49997781,12 C2.67160205,12 2,12.6715676 2,13.5 C2,14.3246605 2.66765276,15 3.49997781,15 C4.32249619,15 5,14.333713 5,13.5 C5,12.6715232 4.32839795,12 3.49997781,12 Z" id="Shape"></path>
                            <path d="M17.9918546,20.5213509 C17.9873767,19.7014621 17.2489567,19.0344943 16.3458368,19.0344943 C16.2500533,19.0344943 12.8075191,19.0344943 12.6992829,19.0344943 C11.7962057,19.0344943 11.0104483,19.7014234 11.0058852,20.5212734 L10.9941575,20.4867791 C10.9896796,19.6702198 10.2546286,19 9.34813971,19 C8.30142987,19 6.79810651,19 5.70158583,19 C4.7985086,19 4.01275123,19.6669291 4.00818808,20.4867791 L4,21.9999613 L5.39116369,21.9999613 L5.39930913,20.4931282 C5.3996503,20.4303338 5.45590072,20.3796957 5.52503031,20.3798506 C5.5941599,20.3800054 5.65006915,20.4309533 5.65006915,20.4937089 L5.65006915,22 C6.46550831,22 8.57061307,22 9.33436497,22 L9.33436497,20.4937089 C9.33436497,20.4265011 9.39428296,20.3719916 9.46831687,20.371798 C9.54230814,20.3716432 9.60260995,20.4258817 9.60299377,20.4930895 L9.6111392,21.9999613 C9.89554712,21.9999613 12.0947722,21.9999613 12.3888608,21.9999613 L12.3970062,20.5276226 C12.3970062,20.5276226 12.3970062,20.5275838 12.3970062,20.5275451 C12.39739,20.4647895 12.4536405,20.41419 12.5227701,20.4143449 C12.5918996,20.4144997 12.6477662,20.4654476 12.6477662,20.5282033 L12.6477662,21.9999613 C13.4632054,21.9999613 15.5683102,21.9999613 16.3320621,21.9999613 L16.3320621,20.5282033 C16.3320621,20.4609955 16.3919801,20.4064859 16.466014,20.4062923 C16.5400052,20.4061375 16.6003071,20.460376 16.6006909,20.5275838 L16.6088363,21.9999226 L18,21.9999226 L17.9918546,20.5213509 Z" id="Shape"></path>
                            <circle id="Oval" cx="7.5" cy="16.5" r="1.5"></circle>
                            <circle id="Oval" cx="14.5" cy="16.5" r="1.5"></circle>
                        </g>
                    </g>
                </g>
            </g>
        </g>
    </g>
</svg>