<?xml version="1.0" encoding="UTF-8"?>
<svg width="17px" height="16px" viewBox="0 0 17 16" version="1.1" xmlns="http://www.w3.org/2000/svg" xmlns:xlink="http://www.w3.org/1999/xlink">
    <!-- Generator: sketchtool 47.1 (45422) - http://www.bohemiancoding.com/sketch -->
    <title>45FD43E1-63D3-474B-9A05-65851C4A52BC</title>
    <desc>Created with sketchtool.</desc>
    <defs></defs>
    <g id="Tədrisin-idarəetməsi" stroke="none" stroke-width="1" fill="none" fill-rule="evenodd">
        <g id="unibook_light_tedrisin_idareetmesi" transform="translate(-48.000000, -230.000000)" fill-rule="nonzero" fill="#16A085">
            <g id="Sidebar" transform="translate(15.000000, 71.000000)">
                <g id="Navigation-Bar" transform="translate(0.000000, 143.000000)">
                    <g id="Group-16" transform="translate(26.000000, 11.000000)">
                        <g id="icon_fennkataloqu_on" transform="translate(14.000000, 14.500000) rotate(-315.000000) translate(-14.000000, -14.500000) translate(3.000000, 6.000000)">
                            <polygon id="Shape" points="15.4429815 12.410716 21.9906975 6.18987654 17.9069136 1.89125309"></polygon>
                            <polygon id="Shape" points="13.2046852 5.77866667 13.3289444 6.16645062 14.9599321 11.2580926 16.9600988 2.71659259 17.1126049 2.06616667 17.256963 1.45077778 17.2333333 1.44527778 11.4311728 0.0863703704 11.4096481 0.176950617 13.0804259 5.39108642"></polygon>
                            <polygon id="Shape" points="10.8671173 0.886111111 10.6498333 0.207438272 10.5882469 0.015617284 4.89051852 1.84093827 5.09951852 2.49279012 9.1628642 6.5562037 9.46801235 6.86169136 9.77309259 7.1667037 10.4738333 7.86744444 10.7334198 8.12675926 10.9926667 8.38634568 14.3272284 11.7202963 14.3325926 11.7028457 12.7381358 6.72758642 12.6141481 6.33959877 12.4902963 5.95195062 11.0850123 1.56559877"></polygon>
                            <path d="M4.23045062,2.14282716 L4.22026543,2.15301235 L0,6.37320988 L7.45901852,13.8322963 L7.76409877,14.1373086 L8.06917901,14.4423889 L8.19900617,14.5723519 L8.29243827,14.6658519 L8.68253086,15.0561481 L8.76543827,15.1388519 L9.07235185,15.4457654 L9.33234568,15.7056914 L9.62350617,15.9968519 L9.89524691,16.2685926 L10.1670556,16.5399938 L10.5768395,16.9503889 L11.8870617,15.6398272 L11.916463,15.6107654 L11.9741111,15.5531173 L12.2634383,15.2637901 L12.4102407,15.1169877 L12.6104136,14.9164753 L12.7547037,14.7721852 L12.8463704,14.6804506 L13.6233642,13.9037963 L13.6631543,13.8636667 L14.2191975,13.3075556 L14.5601296,12.9670309 L14.775716,12.7514444 L14.8075617,12.7191914 L14.7907222,12.7027593 L14.6539691,12.5659383 L14.4974568,12.4090864 L14.2041914,12.1162284 L10.7269691,8.63859877 L10.4677222,8.37955556 L10.2084753,8.12030864 L9.67531481,7.58714815 L9.37023457,7.2820679 L9.06515432,6.97698765 L5.34369136,3.2558642 L4.77719136,2.6893642 L4.23045062,2.14282716 Z M11.0494321,12.1665432 C11.651716,12.1665432 12.1401296,12.6548889 12.1401296,13.2571728 C12.1401296,13.8597963 11.651716,14.3478704 11.0494321,14.3478704 C10.4470123,14.3478704 9.95859877,13.8594568 9.95859877,13.2571728 C9.95859877,12.6548889 10.4469444,12.1665432 11.0494321,12.1665432 Z" id="Shape"></path>
                        </g>
                    </g>
                </g>
            </g>
        </g>
    </g>
</svg>